<svg width="15" height="19" viewBox="0 0 15 19" fill="none" xmlns="http://www.w3.org/2000/svg">
<path d="M10.8242 4.84766C10.9961 4.84766 11.2891 4.875 11.7031 4.92969C12.1172 4.98438 12.5703 5.14062 13.0625 5.39844C13.5625 5.64844 14.0156 6.06641 14.4219 6.65234C14.3984 6.67578 14.2852 6.76172 14.082 6.91016C13.8789 7.05078 13.6523 7.26172 13.4023 7.54297C13.1523 7.81641 12.9336 8.16797 12.7461 8.59766C12.5586 9.01953 12.4648 9.52344 12.4648 10.1094C12.4648 10.7812 12.582 11.3516 12.8164 11.8203C13.0586 12.2891 13.3359 12.668 13.6484 12.957C13.9688 13.2383 14.25 13.4453 14.4922 13.5781C14.7422 13.7109 14.875 13.7812 14.8906 13.7891C14.8828 13.8203 14.7812 14.0977 14.5859 14.6211C14.3984 15.1445 14.0859 15.7266 13.6484 16.3672C13.2656 16.9219 12.8516 17.4336 12.4062 17.9023C11.9688 18.3711 11.4414 18.6055 10.8242 18.6055C10.4102 18.6055 10.0703 18.5469 9.80469 18.4297C9.53906 18.3047 9.26562 18.1836 8.98438 18.0664C8.70312 17.9414 8.32422 17.8789 7.84766 17.8789C7.38672 17.8789 7 17.9414 6.6875 18.0664C6.38281 18.1914 6.08984 18.3164 5.80859 18.4414C5.53516 18.5664 5.21094 18.6289 4.83594 18.6289C4.26562 18.6289 3.76562 18.4023 3.33594 17.9492C2.90625 17.4961 2.46484 16.9531 2.01172 16.3203C1.48828 15.5703 1.03906 14.6562 0.664062 13.5781C0.296875 12.4922 0.113281 11.3984 0.113281 10.2969C0.113281 9.11719 0.335938 8.12891 0.78125 7.33203C1.22656 6.52734 1.79688 5.92188 2.49219 5.51562C3.19531 5.10156 3.92188 4.89453 4.67188 4.89453C5.07031 4.89453 5.44531 4.96094 5.79688 5.09375C6.14844 5.21875 6.47656 5.34766 6.78125 5.48047C7.09375 5.61328 7.375 5.67969 7.625 5.67969C7.86719 5.67969 8.14844 5.60938 8.46875 5.46875C8.78906 5.32812 9.14844 5.19141 9.54688 5.05859C9.94531 4.91797 10.3711 4.84766 10.8242 4.84766ZM10.1797 3.35938C9.875 3.72656 9.49219 4.03516 9.03125 4.28516C8.57031 4.52734 8.13281 4.64844 7.71875 4.64844C7.63281 4.64844 7.55078 4.64062 7.47266 4.625C7.46484 4.60156 7.45703 4.55859 7.44922 4.49609C7.44141 4.43359 7.4375 4.36719 7.4375 4.29688C7.4375 3.82812 7.53906 3.375 7.74219 2.9375C7.94531 2.49219 8.17578 2.125 8.43359 1.83594C8.76172 1.44531 9.17578 1.12109 9.67578 0.863281C10.1758 0.605469 10.6523 0.46875 11.1055 0.453125C11.1289 0.554688 11.1406 0.675781 11.1406 0.816406C11.1406 1.28516 11.0508 1.74219 10.8711 2.1875C10.6914 2.625 10.4609 3.01563 10.1797 3.35938Z" fill="white"/>
</svg>
