<svg width="12" height="12" viewBox="0 0 12 12" fill="none" xmlns="http://www.w3.org/2000/svg">
<g opacity="0.32">
<path d="M1.18719 9.90942C0.937731 10.1589 0.937731 10.5633 1.18719 10.8128C1.43665 11.0623 1.84111 11.0623 2.09058 10.8128L5.99996 6.90342L9.90943 10.8129C10.1589 11.0623 10.5633 11.0623 10.8128 10.8129C11.0623 10.5634 11.0623 10.159 10.8128 9.9095L6.90335 6.00004L10.8129 2.09048C11.0624 1.84102 11.0624 1.43656 10.8129 1.1871C10.5634 0.937634 10.159 0.937635 9.90952 1.1871L5.99996 5.09665L2.09048 1.18717C1.84102 0.937706 1.43656 0.937706 1.1871 1.18717C0.937634 1.43663 0.937635 1.84109 1.1871 2.09055L5.09658 6.00004L1.18719 9.90942Z" fill="#3E404C"/>
</g>
</svg>
