<svg width="24" height="24" viewBox="0 0 24 24" fill="none" xmlns="http://www.w3.org/2000/svg">
<path d="M4.29951 18.2549C3.90037 18.6541 3.90037 19.3012 4.29951 19.7003C4.69864 20.0995 5.34577 20.0995 5.7449 19.7003L11.9999 13.4454L18.2549 19.7005C18.6541 20.0996 19.3012 20.0996 19.7003 19.7005C20.0995 19.3013 20.0995 18.6542 19.7003 18.2551L13.4453 12L19.7005 5.74475C20.0996 5.34561 20.0996 4.69849 19.7005 4.29935C19.3014 3.90022 18.6542 3.90022 18.2551 4.29935L11.9999 10.5546L5.74475 4.29947C5.34561 3.90033 4.69849 3.90033 4.29935 4.29947C3.90022 4.6986 3.90022 5.34573 4.29935 5.74486L10.5545 12L4.29951 18.2549Z" fill="#3E404C"/>
</svg>
