<svg width="20" height="20" viewBox="0 0 20 20" fill="none" xmlns="http://www.w3.org/2000/svg">
<g id="icon">
<path id="close" d="M3.58292 15.2125C3.2503 15.5451 3.2503 16.0844 3.58292 16.417C3.91553 16.7496 4.4548 16.7496 4.78742 16.417L9.99988 11.2045L15.2124 16.4171C15.5451 16.7497 16.0843 16.7497 16.4169 16.4171C16.7496 16.0845 16.7496 15.5452 16.4169 15.2126L11.2044 10L16.4171 4.78733C16.7497 4.45472 16.7497 3.91545 16.4171 3.58283C16.0845 3.25022 15.5452 3.25022 15.2126 3.58283L9.99988 8.79553L4.78729 3.58293C4.45467 3.25032 3.9154 3.25032 3.58279 3.58293C3.25017 3.91554 3.25018 4.45481 3.58279 4.78743L8.79538 10L3.58292 15.2125Z" fill="white"/>
</g>
</svg>
