<svg width="48" height="48" viewBox="0 0 48 48" fill="none" xmlns="http://www.w3.org/2000/svg">
<path d="M30.504 47.1083C40.5987 44.2728 48 35.0008 48 24C48 10.7452 37.2548 0 24 0C10.7452 0 0 10.7452 0 24C0 35.4575 8.02872 45.0399 18.767 47.4278C18.7278 47.3966 18.6994 47.364 18.6827 47.33C18.1954 46.3376 18.269 42.2431 18.6343 41.9091C18.0259 41.993 14.4159 42.2502 13.0952 41.3926C11.9505 40.6493 11.2323 39.6451 10.5983 38.7587C10.2392 38.2566 9.90702 37.7922 9.53968 37.4344C9.17981 37.0839 8.7562 36.7333 8.35916 36.4047C7.63542 35.8058 7 35.28 7 34.9605C7 34.4657 8.52381 33.4762 9.53968 34.4657L12.5873 37.4344C13.0952 37.9292 15.127 39.9083 18.6827 38.6833C19.0637 38.5521 19.1121 38.2033 19.1724 37.7696C19.2502 37.2095 19.3476 36.5077 20.2064 35.95C20.0915 35.7263 19.4831 35.6037 18.6103 35.4278C15.6234 34.8261 9.53968 33.6004 9.53968 25.5596C9.53968 22.6353 10.9259 20.2511 11.6501 19.0055C11.9061 18.5652 12.0794 18.2672 12.0794 18.1379C12.0794 18.036 12.0363 17.7661 11.9767 17.393C11.747 15.9554 11.2728 12.9862 12.0794 12.2005C13.0952 11.211 17.6665 14.1795 18.1746 14.6744C19.6984 14.1796 28.8413 14.1797 29.8571 14.6744C30.3351 14.9072 31.4875 14.2639 32.7327 13.5689C34.1343 12.7865 35.6534 11.9385 36.4603 12.2005C37.7223 12.6103 37.2424 16.0743 37.0402 17.5336C36.9982 17.8364 36.9683 18.0529 36.9683 18.1379C36.9683 18.2616 37.0952 18.509 37.2857 18.8801C37.8571 19.9933 39 22.2199 39 25.5596C39 30.0126 36.4603 35.95 28.8413 35.95C29.804 36.8878 31.223 45.3805 30.504 47.1083Z" fill="#E1E1E8"/>
</svg>
