<svg width="24" height="24" viewBox="0 0 24 24" fill="none" xmlns="http://www.w3.org/2000/svg">
<g id="optical-size=24, symbols=help, fill=off">
<g id="help">
<path d="M12 9C11.4477 9 11 9.44772 11 10H9C9 8.34315 10.3431 7 12 7C13.6569 7 15 8.34315 15 10C15 11.3062 14.1652 12.4175 13 12.8293V14H11V12C11 11.4477 11.4477 11 12 11C12.5523 11 13 10.5523 13 10C13 9.44772 12.5523 9 12 9Z" fill="#F7737C"/>
<path d="M12 15C11.4477 15 11 15.4477 11 16C11 16.5523 11.4477 17 12 17C12.5523 17 13 16.5523 13 16C13 15.4477 12.5523 15 12 15Z" fill="#F7737C"/>
<path fill-rule="evenodd" clip-rule="evenodd" d="M12 22C17.5228 22 22 17.5228 22 12C22 6.47715 17.5228 2 12 2C6.47715 2 2 6.47715 2 12C2 17.5228 6.47715 22 12 22ZM12 20C16.4183 20 20 16.4183 20 12C20 7.58172 16.4183 4 12 4C7.58172 4 4 7.58172 4 12C4 16.4183 7.58172 20 12 20Z" fill="#F7737C"/>
</g>
</g>
</svg>
