<svg width="35" height="22" viewBox="0 0 35 22" fill="none" xmlns="http://www.w3.org/2000/svg">
<path d="M8.99999 1C13.4183 1 17 5.47715 17 11C17 16.5228 13.4183 21 8.99999 21C4.58171 21 1 16.5228 1 11C1 5.47715 4.58171 1 8.99999 1Z" fill="white" stroke="#A9ABB8" stroke-width="2" stroke-miterlimit="10"/>
<path d="M5.5 5C7.98528 5 10 7.68629 10 11C10 14.3137 7.98528 17 5.5 17C3.01472 17 1 14.3137 1 11C1 7.68629 3.01472 5 5.5 5Z" fill="#A9ABB8"/>
<path d="M25.5 1C30.1944 1 34 5.47715 34 11C34 16.5228 30.1944 21 25.5 21C20.8056 21 17 16.5228 17 11C17 5.47715 20.8056 1 25.5 1Z" fill="white" stroke="#A9ABB8" stroke-width="2" stroke-miterlimit="10"/>
<path d="M21.5 5C23.9853 5 26 7.68629 26 11C26 14.3137 23.9853 17 21.5 17C19.0147 17 17 14.3137 17 11C17 7.68629 19.0147 5 21.5 5Z" fill="#A9ABB8"/>
</svg>
