<svg width="24" height="24" viewBox="0 0 24 24" fill="none" xmlns="http://www.w3.org/2000/svg">
<g id="optical-size=24, symbols=restart, fill=off">
<mask id="mask0_83_20261" style="mask-type:alpha" maskUnits="userSpaceOnUse" x="0" y="0" width="24" height="24">
<rect id="Bounding box" width="24" height="24" fill="#D9D9D9"/>
</mask>
<g mask="url(#mask0_83_20261)">
<path id="restart" d="M12.5356 2.29287C12.9261 1.90238 13.5593 1.90238 13.9498 2.29287C14.3403 2.68337 14.3403 3.31659 13.9498 3.70709L13.0145 4.64239C13.9235 4.74449 14.7926 4.98215 15.6004 5.33508C18.7769 6.72297 21 9.89364 21 13.5858C21 18.5563 16.9706 22.5858 12 22.5858C7.01488 22.5858 3 18.4857 3 13.4608C3 11.4116 3.66742 9.51633 4.79541 7.99114C5.12381 7.5471 5.74999 7.45336 6.19403 7.78176C6.63807 8.11016 6.73182 8.73635 6.40342 9.18039C5.5228 10.3711 5 11.8517 5 13.4608C5 17.4105 8.14857 20.5858 12 20.5858C15.866 20.5858 19 17.4518 19 13.5858C19 10.7169 17.274 8.24888 14.7996 7.16779C14.1207 6.87115 13.3851 6.67894 12.6122 6.61211L13.9498 7.94973C14.1424 8.14239 14.24 8.39426 14.2424 8.64665C14.245 8.90577 14.1476 9.1661 13.9498 9.36394C13.5593 9.75444 12.9261 9.75444 12.5356 9.36394L9.70714 6.53551C9.31665 6.14502 9.31665 5.5118 9.70714 5.1213L12.5356 2.29287Z" fill="#5B2EE0"/>
</g>
</g>
</svg>
