<svg width="24" height="24" viewBox="0 0 24 24" fill="none" xmlns="http://www.w3.org/2000/svg">
<g id="optical-size=24, symbols=share-fill, fill=on">
<mask id="mask0_26_419" style="mask-type:alpha" maskUnits="userSpaceOnUse" x="0" y="0" width="24" height="24">
<rect id="Bounding box" width="24" height="24" fill="#D9D9D9"/>
</mask>
<g mask="url(#mask0_26_419)">
<path id="share" d="M22 4C22 5.65685 20.6569 7 19 7C18.251 7 17.5661 6.72551 17.0404 6.27163L7.95239 11.4648C7.98367 11.6385 8 11.8173 8 12C8 12.1827 7.98366 12.3617 7.95236 12.5354L17.0403 17.7285C17.566 17.2745 18.2509 17 19 17C20.6569 17 22 18.3431 22 20C22 21.6569 20.6569 23 19 23C17.3431 23 16 21.6569 16 20C16 19.8173 16.0163 19.6384 16.0476 19.4648L6.9596 14.2716C6.43391 14.7255 5.74901 15 5 15C3.34315 15 2 13.6569 2 12C2 10.3431 3.34315 9 5 9C5.74908 9 6.43404 9.27455 6.95975 9.7285L16.0476 4.53542C16.0163 4.36168 16 4.18275 16 4C16 2.34315 17.3431 1 19 1C20.6569 1 22 2.34315 22 4Z" fill="#5B2EE0"/>
</g>
</g>
</svg>
