<svg width="48" height="48" viewBox="0 0 48 48" fill="none" xmlns="http://www.w3.org/2000/svg">
<path fill-rule="evenodd" clip-rule="evenodd" d="M24 36C30.6274 36 36 30.6274 36 24C36 17.3726 30.6274 12 24 12C17.3726 12 12 17.3726 12 24C12 30.6274 17.3726 36 24 36ZM24 32C28.4183 32 32 28.4183 32 24C32 19.5817 28.4183 16 24 16C19.5817 16 16 19.5817 16 24C16 28.4183 19.5817 32 24 32Z" fill="#E1E1E8"/>
<path d="M37 14C38.6569 14 40 12.6569 40 11C40 9.34315 38.6569 8 37 8C35.3431 8 34 9.34315 34 11C34 12.6569 35.3431 14 37 14Z" fill="#E1E1E8"/>
<path fill-rule="evenodd" clip-rule="evenodd" d="M12 0C5.37258 0 0 5.37258 0 12V36C0 42.6274 5.37258 48 12 48H36C42.6274 48 48 42.6274 48 36V12C48 5.37258 42.6274 0 36 0H12ZM36 4H12C7.58172 4 4 7.58172 4 12V36C4 40.4183 7.58172 44 12 44H36C40.4183 44 44 40.4183 44 36V12C44 7.58172 40.4183 4 36 4Z" fill="#E1E1E8"/>
</svg>
