<svg width="40" height="40" viewBox="0 0 40 40" fill="none" xmlns="http://www.w3.org/2000/svg">
<rect width="40" height="40" rx="20" fill="white"/>
<g clip-path="url(#clip0_787_2146)">
<path d="M24.3971 29.2254L21.1967 34.3563C20.5988 35.3143 19.2003 35.3047 18.6152 34.3386L15.4823 29.166C15.2171 28.7287 14.7494 28.4539 14.2382 28.4362L8.19431 28.2304C7.0659 28.1919 6.37471 26.9767 6.91802 25.9865L9.83066 20.6868C10.0766 20.2383 10.0814 19.6966 9.84031 19.245L6.99839 13.9099C6.46794 12.9133 7.1752 11.7062 8.30361 11.6837L14.3491 11.5567C14.8603 11.5454 15.3313 11.2786 15.6029 10.8446L18.8033 5.7137C19.4012 4.75568 20.7997 4.76532 21.3848 5.73138L24.5177 10.9041C24.7829 11.3413 25.2506 11.6161 25.7618 11.6338L31.8057 11.8396C32.9341 11.8782 33.6253 13.0934 33.082 14.0835L30.1693 19.3832C29.9234 19.8317 29.9186 20.3734 30.1597 20.8251L33.0032 26.1617C33.5337 27.1583 32.8264 28.3655 31.698 28.388L25.6525 28.515C25.1413 28.5262 24.6704 28.793 24.3987 29.227L24.3971 29.2254Z" fill="#8662F3"/>
<path d="M15.4872 19.7045C16.3013 19.7045 16.9612 18.905 16.9612 17.9187C16.9612 16.9324 16.3013 16.1328 15.4872 16.1328C14.6731 16.1328 14.0132 16.9324 14.0132 17.9187C14.0132 18.905 14.6731 19.7045 15.4872 19.7045Z" fill="white" stroke="black" stroke-width="0.160742" stroke-miterlimit="10"/>
<path d="M14.8474 18.9281C15.3082 18.9281 15.6817 18.4761 15.6817 17.9186C15.6817 17.3611 15.3082 16.9092 14.8474 16.9092C14.3867 16.9092 14.0132 17.3611 14.0132 17.9186C14.0132 18.4761 14.3867 18.9281 14.8474 18.9281Z" fill="#1F1E12"/>
<path d="M18.4368 19.7045C19.2508 19.7045 19.9108 18.905 19.9108 17.9187C19.9108 16.9324 19.2508 16.1328 18.4368 16.1328C17.6227 16.1328 16.9628 16.9324 16.9628 17.9187C16.9628 18.905 17.6227 19.7045 18.4368 19.7045Z" fill="white" stroke="black" stroke-width="0.160742" stroke-miterlimit="10"/>
<path d="M17.797 18.9281C18.2578 18.9281 18.6313 18.4761 18.6313 17.9186C18.6313 17.3611 18.2578 16.9092 17.797 16.9092C17.3363 16.9092 16.9628 17.3611 16.9628 17.9186C16.9628 18.4761 17.3363 18.9281 17.797 18.9281Z" fill="#1F1E12"/>
</g>
<defs>
<clipPath id="clip0_787_2146">
<rect width="26.5401" height="30.07" fill="white" transform="translate(6.72998 5)"/>
</clipPath>
</defs>
</svg>
