<?xml version="1.0" encoding="UTF-8"?><!DOCTYPE svg PUBLIC "-//W3C//DTD SVG 1.1//EN" "http://www.w3.org/Graphics/SVG/1.1/DTD/svg11.dtd"><svg xmlns="http://www.w3.org/2000/svg" xmlns:xlink="http://www.w3.org/1999/xlink"><defs>
<clipPath id="clip0_787_2146">
<rect width="26.5401" height="30.07" fill="white" transform="translate(6.72998 5)"/>
</clipPath>
</defs><symbol id="arrow_back" viewBox="0 0 24 24">
<g id="optical-size=24, symbols=arrow-back, fill=off">
<path id="arrow-back" d="M16.6065 2.70711C16.216 2.31661 15.5828 2.31661 15.1923 2.70711L6.70703 11.1924C6.31653 11.5829 6.31653 12.2161 6.70703 12.6066L15.1923 21.0919C15.5828 21.4824 16.216 21.4824 16.6065 21.0919C16.997 20.7014 16.997 20.0682 16.6065 19.6777L8.82835 11.8995L16.6065 4.12132C16.997 3.73082 16.997 3.0976 16.6065 2.70711Z" fill="#3E404C"/>
</g>
</symbol><symbol id="bookmark_fill" viewBox="0 0 24 24">
<g id="optical-size=24, symbols=bookmark-fill, fill=on">
<mask id="mask0_26_415" style="mask-type:alpha" maskUnits="userSpaceOnUse" x="0" y="0" width="24" height="24">
<rect id="Bounding box" width="24" height="24" fill="#D9D9D9"/>
</mask>
<g mask="url(#mask0_26_415)">
<path id="bookmark-fill" d="M5 21V5C5 4.45 5.19583 3.97917 5.5875 3.5875C5.97917 3.19583 6.45 3 7 3H17C17.55 3 18.0208 3.19583 18.4125 3.5875C18.8042 3.97917 19 4.45 19 5V21L12 18L5 21Z" fill="white"/>
</g>
</g>
</symbol><symbol id="bookmark" viewBox="0 0 24 24">
<mask id="mask0_787_1255" style="mask-type:alpha" maskUnits="userSpaceOnUse" x="0" y="0" width="24" height="24">
<rect width="24" height="24" fill="#D9D9D9"/>
</mask>
<g mask="url(#mask0_787_1255)">
<path fill-rule="evenodd" clip-rule="evenodd" d="M12 18L19 21V5C19 4.45 18.8042 3.97917 18.4125 3.5875C18.0208 3.19583 17.55 3 17 3H7C6.45 3 5.97917 3.19583 5.5875 3.5875C5.19583 3.97917 5 4.45 5 5V21L12 18ZM7 17.9669L12 15.8241L17 17.9669V5.00344L16.9983 5.00171L16.9966 5H7.00344L7.00171 5.00171L7 5.00344V17.9669Z" fill="white"/>
</g>
</symbol><symbol id="carat_down_gray" viewBox="0 0 16 16">
<path fill-rule="evenodd" clip-rule="evenodd" d="M12.6201 6.18994L8.00013 10.8099L3.38013 6.18994H12.6201Z" fill="#3E404C"/>
</symbol><symbol id="carat_down" viewBox="0 0 16 16">
<g id="optical-size=16, symbols=caret-down, fill=on">
<path id="Icon shape" fill-rule="evenodd" clip-rule="evenodd" d="M12.6199 6.18994L7.99988 10.8099L3.37988 6.18994H12.6199Z" fill="#744CEB"/>
</g>
</symbol><symbol id="carat_up" viewBox="0 0 16 16">
<g id="optical-size=16, symbols=caret-up, fill=on">
<path id="Icon shape" fill-rule="evenodd" clip-rule="evenodd" d="M12.6282 10.3105L8.02504 5.67352L3.38802 10.2757L12.6282 10.3105Z" fill="#5B2EE0"/>
</g>
</symbol><symbol id="close_gray" viewBox="0 0 12 12">
<g opacity="0.32">
<path d="M1.18719 9.90942C0.937731 10.1589 0.937731 10.5633 1.18719 10.8128C1.43665 11.0623 1.84111 11.0623 2.09058 10.8128L5.99996 6.90342L9.90943 10.8129C10.1589 11.0623 10.5633 11.0623 10.8128 10.8129C11.0623 10.5634 11.0623 10.159 10.8128 9.9095L6.90335 6.00004L10.8129 2.09048C11.0624 1.84102 11.0624 1.43656 10.8129 1.1871C10.5634 0.937634 10.159 0.937635 9.90952 1.1871L5.99996 5.09665L2.09048 1.18717C1.84102 0.937706 1.43656 0.937706 1.1871 1.18717C0.937634 1.43663 0.937635 1.84109 1.1871 2.09055L5.09658 6.00004L1.18719 9.90942Z" fill="#3E404C"/>
</g>
</symbol><symbol id="close_white" viewBox="0 0 20 20">
<g id="icon">
<path id="close" d="M3.58292 15.2125C3.2503 15.5451 3.2503 16.0844 3.58292 16.417C3.91553 16.7496 4.4548 16.7496 4.78742 16.417L9.99988 11.2045L15.2124 16.4171C15.5451 16.7497 16.0843 16.7497 16.4169 16.4171C16.7496 16.0845 16.7496 15.5452 16.4169 15.2126L11.2044 10L16.4171 4.78733C16.7497 4.45472 16.7497 3.91545 16.4171 3.58283C16.0845 3.25022 15.5452 3.25022 15.2126 3.58283L9.99988 8.79553L4.78729 3.58293C4.45467 3.25032 3.9154 3.25032 3.58279 3.58293C3.25017 3.91554 3.25018 4.45481 3.58279 4.78743L8.79538 10L3.58292 15.2125Z" fill="white"/>
</g>
</symbol><symbol id="close" viewBox="0 0 16 16">
<path d="M0.299506 14.2549C-0.0996298 14.6541 -0.0996301 15.3012 0.299506 15.7003C0.698641 16.0995 1.34577 16.0995 1.7449 15.7003L7.99987 9.44538L14.2549 15.7005C14.6541 16.0996 15.3012 16.0996 15.7003 15.7005C16.0995 15.3013 16.0995 14.6542 15.7003 14.2551L9.44526 7.99998L15.7005 1.74475C16.0996 1.34561 16.0996 0.698487 15.7005 0.299351C15.3014 -0.0997844 14.6542 -0.0997834 14.2551 0.299352L7.99987 6.55458L1.74475 0.299466C1.34561 -0.0996695 0.698487 -0.0996698 0.299351 0.299466C-0.0997844 0.698601 -0.0997834 1.34573 0.299352 1.74486L6.55447 7.99998L0.299506 14.2549Z" fill="#3E404C"/>
</symbol><symbol id="github" viewBox="0 0 48 48">
<path d="M30.504 47.1083C40.5987 44.2728 48 35.0008 48 24C48 10.7452 37.2548 0 24 0C10.7452 0 0 10.7452 0 24C0 35.4575 8.02872 45.0399 18.767 47.4278C18.7278 47.3966 18.6994 47.364 18.6827 47.33C18.1954 46.3376 18.269 42.2431 18.6343 41.9091C18.0259 41.993 14.4159 42.2502 13.0952 41.3926C11.9505 40.6493 11.2323 39.6451 10.5983 38.7587C10.2392 38.2566 9.90702 37.7922 9.53968 37.4344C9.17981 37.0839 8.7562 36.7333 8.35916 36.4047C7.63542 35.8058 7 35.28 7 34.9605C7 34.4657 8.52381 33.4762 9.53968 34.4657L12.5873 37.4344C13.0952 37.9292 15.127 39.9083 18.6827 38.6833C19.0637 38.5521 19.1121 38.2033 19.1724 37.7696C19.2502 37.2095 19.3476 36.5077 20.2064 35.95C20.0915 35.7263 19.4831 35.6037 18.6103 35.4278C15.6234 34.8261 9.53968 33.6004 9.53968 25.5596C9.53968 22.6353 10.9259 20.2511 11.6501 19.0055C11.9061 18.5652 12.0794 18.2672 12.0794 18.1379C12.0794 18.036 12.0363 17.7661 11.9767 17.393C11.747 15.9554 11.2728 12.9862 12.0794 12.2005C13.0952 11.211 17.6665 14.1795 18.1746 14.6744C19.6984 14.1796 28.8413 14.1797 29.8571 14.6744C30.3351 14.9072 31.4875 14.2639 32.7327 13.5689C34.1343 12.7865 35.6534 11.9385 36.4603 12.2005C37.7223 12.6103 37.2424 16.0743 37.0402 17.5336C36.9982 17.8364 36.9683 18.0529 36.9683 18.1379C36.9683 18.2616 37.0952 18.509 37.2857 18.8801C37.8571 19.9933 39 22.2199 39 25.5596C39 30.0126 36.4603 35.95 28.8413 35.95C29.804 36.8878 31.223 45.3805 30.504 47.1083Z" fill="#E1E1E8"/>
</symbol><symbol id="help" viewBox="0 0 24 24">
<g id="optical-size=24, symbols=help, fill=off">
<g id="help">
<path d="M12 9C11.4477 9 11 9.44772 11 10H9C9 8.34315 10.3431 7 12 7C13.6569 7 15 8.34315 15 10C15 11.3062 14.1652 12.4175 13 12.8293V14H11V12C11 11.4477 11.4477 11 12 11C12.5523 11 13 10.5523 13 10C13 9.44772 12.5523 9 12 9Z" fill="#F7737C"/>
<path d="M12 15C11.4477 15 11 15.4477 11 16C11 16.5523 11.4477 17 12 17C12.5523 17 13 16.5523 13 16C13 15.4477 12.5523 15 12 15Z" fill="#F7737C"/>
<path fill-rule="evenodd" clip-rule="evenodd" d="M12 22C17.5228 22 22 17.5228 22 12C22 6.47715 17.5228 2 12 2C6.47715 2 2 6.47715 2 12C2 17.5228 6.47715 22 12 22ZM12 20C16.4183 20 20 16.4183 20 12C20 7.58172 16.4183 4 12 4C7.58172 4 4 7.58172 4 12C4 16.4183 7.58172 20 12 20Z" fill="#F7737C"/>
</g>
</g>
</symbol><symbol id="info" viewBox="0 0 24 24">
<g id="optical-size=24, symbols=info, fill=off">
<g id="info">
<path d="M11 12C11 11.4477 11.4477 11 12 11C12.5523 11 13 11.4477 13 12V17H11V12Z" fill="#858899"/>
<path d="M12 7C11.4477 7 11 7.44772 11 8C11 8.55228 11.4477 9 12 9C12.5523 9 13 8.55228 13 8C13 7.44772 12.5523 7 12 7Z" fill="#858899"/>
<path fill-rule="evenodd" clip-rule="evenodd" d="M12 22C17.5228 22 22 17.5228 22 12C22 6.47715 17.5228 2 12 2C6.47715 2 2 6.47715 2 12C2 17.5228 6.47715 22 12 22ZM12 20C16.4183 20 20 16.4183 20 12C20 7.58172 16.4183 4 12 4C7.58172 4 4 7.58172 4 12C4 16.4183 7.58172 20 12 20Z" fill="#858899"/>
</g>
</g>
</symbol><symbol id="instagram" viewBox="0 0 48 48">
<path fill-rule="evenodd" clip-rule="evenodd" d="M24 36C30.6274 36 36 30.6274 36 24C36 17.3726 30.6274 12 24 12C17.3726 12 12 17.3726 12 24C12 30.6274 17.3726 36 24 36ZM24 32C28.4183 32 32 28.4183 32 24C32 19.5817 28.4183 16 24 16C19.5817 16 16 19.5817 16 24C16 28.4183 19.5817 32 24 32Z" fill="#E1E1E8"/>
<path d="M37 14C38.6569 14 40 12.6569 40 11C40 9.34315 38.6569 8 37 8C35.3431 8 34 9.34315 34 11C34 12.6569 35.3431 14 37 14Z" fill="#E1E1E8"/>
<path fill-rule="evenodd" clip-rule="evenodd" d="M12 0C5.37258 0 0 5.37258 0 12V36C0 42.6274 5.37258 48 12 48H36C42.6274 48 48 42.6274 48 36V12C48 5.37258 42.6274 0 36 0H12ZM36 4H12C7.58172 4 4 7.58172 4 12V36C4 40.4183 7.58172 44 12 44H36C40.4183 44 44 40.4183 44 36V12C44 7.58172 40.4183 4 36 4Z" fill="#E1E1E8"/>
</symbol><symbol id="menu" viewBox="0 0 24 24">
<g id="optical-size=24, symbols=menu, fill=off">
<g id="menu">
<path d="M3 6C3 5.44772 3.44772 5 4 5H20C20.5523 5 21 5.44772 21 6C21 6.55228 20.5523 7 20 7H4C3.44772 7 3 6.55228 3 6Z" fill="#3E404C"/>
<path d="M3 12C3 11.4477 3.44772 11 4 11H20C20.5523 11 21 11.4477 21 12C21 12.5523 20.5523 13 20 13H4C3.44772 13 3 12.5523 3 12Z" fill="#3E404C"/>
<path d="M4 17C3.44772 17 3 17.4477 3 18C3 18.5523 3.44772 19 4 19H20C20.5523 19 21 18.5523 21 18C21 17.4477 20.5523 17 20 17H4Z" fill="#3E404C"/>
</g>
</g>
</symbol><symbol id="profile_default" viewBox="0 0 40 40">
<rect width="40" height="40" rx="20" fill="white"/>
<g clip-path="url(#clip0_787_2146)">
<path d="M24.3971 29.2254L21.1967 34.3563C20.5988 35.3143 19.2003 35.3047 18.6152 34.3386L15.4823 29.166C15.2171 28.7287 14.7494 28.4539 14.2382 28.4362L8.19431 28.2304C7.0659 28.1919 6.37471 26.9767 6.91802 25.9865L9.83066 20.6868C10.0766 20.2383 10.0814 19.6966 9.84031 19.245L6.99839 13.9099C6.46794 12.9133 7.1752 11.7062 8.30361 11.6837L14.3491 11.5567C14.8603 11.5454 15.3313 11.2786 15.6029 10.8446L18.8033 5.7137C19.4012 4.75568 20.7997 4.76532 21.3848 5.73138L24.5177 10.9041C24.7829 11.3413 25.2506 11.6161 25.7618 11.6338L31.8057 11.8396C32.9341 11.8782 33.6253 13.0934 33.082 14.0835L30.1693 19.3832C29.9234 19.8317 29.9186 20.3734 30.1597 20.8251L33.0032 26.1617C33.5337 27.1583 32.8264 28.3655 31.698 28.388L25.6525 28.515C25.1413 28.5262 24.6704 28.793 24.3987 29.227L24.3971 29.2254Z" fill="#8662F3"/>
<path d="M15.4872 19.7045C16.3013 19.7045 16.9612 18.905 16.9612 17.9187C16.9612 16.9324 16.3013 16.1328 15.4872 16.1328C14.6731 16.1328 14.0132 16.9324 14.0132 17.9187C14.0132 18.905 14.6731 19.7045 15.4872 19.7045Z" fill="white" stroke="black" stroke-width="0.160742" stroke-miterlimit="10"/>
<path d="M14.8474 18.9281C15.3082 18.9281 15.6817 18.4761 15.6817 17.9186C15.6817 17.3611 15.3082 16.9092 14.8474 16.9092C14.3867 16.9092 14.0132 17.3611 14.0132 17.9186C14.0132 18.4761 14.3867 18.9281 14.8474 18.9281Z" fill="#1F1E12"/>
<path d="M18.4368 19.7045C19.2508 19.7045 19.9108 18.905 19.9108 17.9187C19.9108 16.9324 19.2508 16.1328 18.4368 16.1328C17.6227 16.1328 16.9628 16.9324 16.9628 17.9187C16.9628 18.905 17.6227 19.7045 18.4368 19.7045Z" fill="white" stroke="black" stroke-width="0.160742" stroke-miterlimit="10"/>
<path d="M17.797 18.9281C18.2578 18.9281 18.6313 18.4761 18.6313 17.9186C18.6313 17.3611 18.2578 16.9092 17.797 16.9092C17.3363 16.9092 16.9628 17.3611 16.9628 17.9186C16.9628 18.4761 17.3363 18.9281 17.797 18.9281Z" fill="#1F1E12"/>
</g>

</symbol><symbol id="restart" viewBox="0 0 24 24">
<mask id="mask0_424_1505" style="mask-type:alpha" maskUnits="userSpaceOnUse" x="0" y="0" width="24" height="24">
<rect width="24" height="24" fill="#D9D9D9"/>
</mask>
<g mask="url(#mask0_424_1505)">
<path d="M12.5356 2.29287C12.9261 1.90238 13.5593 1.90238 13.9498 2.29287C14.3403 2.68337 14.3403 3.31659 13.9498 3.70709L13.0145 4.64239C13.9235 4.74449 14.7926 4.98215 15.6004 5.33508C18.7769 6.72297 21 9.89364 21 13.5858C21 18.5563 16.9706 22.5858 12 22.5858C7.01488 22.5858 3 18.4857 3 13.4608C3 11.4116 3.66742 9.51633 4.79541 7.99114C5.12381 7.5471 5.74999 7.45336 6.19403 7.78176C6.63807 8.11016 6.73182 8.73635 6.40342 9.18039C5.5228 10.3711 5 11.8517 5 13.4608C5 17.4105 8.14857 20.5858 12 20.5858C15.866 20.5858 19 17.4518 19 13.5858C19 10.7169 17.274 8.24888 14.7996 7.16779C14.1207 6.87115 13.3851 6.67894 12.6122 6.61211L13.9498 7.94973C14.1424 8.14239 14.24 8.39426 14.2424 8.64665C14.245 8.90577 14.1476 9.1661 13.9498 9.36394C13.5593 9.75444 12.9261 9.75444 12.5356 9.36394L9.70714 6.53551C9.31665 6.14502 9.31665 5.5118 9.70714 5.1213L12.5356 2.29287Z" fill="#5B2EE0"/>
</g>
</symbol><symbol id="share" viewBox="0 0 24 24">
<g id="optical-size=24, symbols=share-fill, fill=on">
<mask id="mask0_26_419" style="mask-type:alpha" maskUnits="userSpaceOnUse" x="0" y="0" width="24" height="24">
<rect id="Bounding box" width="24" height="24" fill="#D9D9D9"/>
</mask>
<g mask="url(#mask0_26_419)">
<path id="share" d="M22 4C22 5.65685 20.6569 7 19 7C18.251 7 17.5661 6.72551 17.0404 6.27163L7.95239 11.4648C7.98367 11.6385 8 11.8173 8 12C8 12.1827 7.98366 12.3617 7.95236 12.5354L17.0403 17.7285C17.566 17.2745 18.2509 17 19 17C20.6569 17 22 18.3431 22 20C22 21.6569 20.6569 23 19 23C17.3431 23 16 21.6569 16 20C16 19.8173 16.0163 19.6384 16.0476 19.4648L6.9596 14.2716C6.43391 14.7255 5.74901 15 5 15C3.34315 15 2 13.6569 2 12C2 10.3431 3.34315 9 5 9C5.74908 9 6.43404 9.27455 6.95975 9.7285L16.0476 4.53542C16.0163 4.36168 16 4.18275 16 4C16 2.34315 17.3431 1 19 1C20.6569 1 22 2.34315 22 4Z" fill="#5B2EE0"/>
</g>
</g>
</symbol></svg>